<?xml version="1.0" encoding="UTF-8"?>
<!--
  The Learning Society — Mark Only
  viewBox: 256 × 256  (dashboard corners, sidebar, favicon, icon use)
  Scales cleanly to 16×16 (favicon) through 256×256 (full-size mark).
  Colors: Coastal Teal #55A1B4 · Primary-300 #8DBAC6 · Warm Amber #EB7724 · Golden Sun #F8B044
-->
<svg width="256" height="256" viewBox="0 0 256 256" fill="none"
     xmlns="http://www.w3.org/2000/svg">

  <!-- Mark centered with 19px horizontal / 28px vertical padding -->
  <svg x="19" y="28" width="218" height="200" viewBox="0 0 439 402" fill="none" overflow="visible">
    <path d="M435.056 194.472C434.145 186.524 431.061 178.982 426.141 172.671C421.22 166.361 414.654 161.527 407.165 158.7C399.673 155.873 391.548 155.163 383.679 156.647C375.813 158.132 368.504 161.753 362.562 167.114C354.997 173.879 345.19 177.604 335.037 177.569H329.455C322.163 177.569 315.003 175.632 308.708 171.958C302.412 168.284 297.207 163.004 293.626 156.659C286.029 143.2 274.984 132.001 261.626 124.212C248.268 116.422 233.076 112.321 217.609 112.329H217.155C209.782 112.453 202.507 110.618 196.077 107.011C189.647 103.405 184.291 98.1557 180.559 91.8023L177.768 86.9582C172.687 78.1719 171.057 67.812 173.198 57.8929C175.526 47.0199 173.591 35.6688 167.791 26.1789C161.788 16.4561 152.203 9.47737 141.1 6.74587C129.997 4.01436 118.265 5.74868 108.429 11.5753C98.5939 17.4019 91.443 26.8544 88.5167 37.8971C85.5904 48.9396 87.1228 60.6886 92.7845 70.6132C98.2716 80.152 107.192 87.2429 117.728 90.4432C127.206 93.5298 135.167 100.077 140.021 108.774L142.777 113.584C146.422 120.038 148.284 127.344 148.173 134.753C148.063 142.163 145.984 149.41 142.149 155.753L141.765 156.45C138.177 162.85 132.954 168.186 126.63 171.914C120.306 175.643 113.105 177.63 105.762 177.674H100.181C90.1062 177.73 80.3798 173.997 72.934 167.219C66.6863 161.548 58.9255 157.81 50.5933 156.46C42.2611 155.109 33.7155 156.203 25.9935 159.609C18.2715 163.016 11.7051 168.587 7.09106 175.649C2.47703 182.71 0.0137235 190.957 5.71757e-05 199.39C-0.0136092 207.822 2.42295 216.078 7.01409 223.154C11.6052 230.23 18.1535 235.823 25.8644 239.254C33.5753 242.685 42.1173 243.807 50.4539 242.483C58.7905 241.16 66.5634 237.447 72.8294 231.797C80.3842 225.037 90.1776 221.312 100.32 221.341H105.902C113.248 221.392 120.449 223.386 126.773 227.121C133.097 230.855 138.318 236.196 141.905 242.6L142.288 243.297C146.129 249.637 148.214 256.883 148.331 264.292C148.447 271.702 146.591 279.009 142.951 285.466L140.16 290.276C135.074 299.085 126.893 305.692 117.205 308.816C109.141 311.402 102.005 316.278 96.6685 322.848C91.3325 329.418 88.0272 337.399 87.1561 345.814C86.2851 354.23 87.886 362.717 91.7638 370.239C95.6413 377.76 101.628 383.991 108.992 388.171C116.356 392.352 124.779 394.296 133.232 393.774C141.685 393.251 149.803 390.28 156.594 385.222C163.384 380.168 168.554 373.246 171.472 365.302C174.389 357.359 174.929 348.739 173.023 340.495C170.985 330.757 172.678 320.609 177.768 312.057L180.559 307.213C184.297 300.857 189.651 295.601 196.078 291.978C202.505 288.355 209.776 286.493 217.155 286.582H217.609C233.08 286.587 248.274 282.48 261.632 274.684C274.991 266.888 286.033 255.682 293.626 242.217C297.21 235.874 302.415 230.596 308.71 226.922C315.006 223.248 322.164 221.31 329.455 221.307H335.665C345.748 221.463 355.422 225.321 362.841 232.145C369.451 237.984 377.675 241.684 386.433 242.755C395.191 243.826 404.067 242.219 411.892 238.145C419.713 234.071 426.115 227.723 430.253 219.938C434.391 212.153 436.062 203.297 435.056 194.541V194.472ZM243.773 244.726C234.81 249.896 224.514 252.295 214.186 251.619C203.858 250.943 193.963 247.223 185.751 240.929C177.54 234.635 171.382 226.05 168.055 216.259C164.727 206.469 164.381 195.913 167.06 185.925C169.739 175.939 175.322 166.969 183.103 160.152C190.885 153.335 200.515 148.976 210.776 147.627C221.038 146.277 231.469 147.998 240.752 152.57C250.035 157.143 257.751 164.363 262.926 173.318C269.865 185.324 271.746 199.593 268.154 212.984C264.562 226.376 255.792 237.794 243.773 244.726Z" fill="#55A1B4"/>
    <path d="M216.398 225.867C230.849 225.867 242.563 214.164 242.563 199.729C242.563 185.293 230.849 173.591 216.398 173.591C201.948 173.591 190.233 185.293 190.233 199.729C190.233 214.164 201.948 225.867 216.398 225.867Z" fill="#8DBAC6"/>
    <path d="M307.193 92.9776C331.38 92.9776 350.986 73.3911 350.986 49.2298C350.986 25.0685 331.38 5.48193 307.193 5.48193C283.007 5.48193 263.4 25.0685 263.4 49.2298C263.4 73.3911 283.007 92.9776 307.193 92.9776Z" fill="#EB7724"/>
    <path d="M307.008 395.935C331.092 395.935 350.617 376.431 350.617 352.372C350.617 328.313 331.092 308.809 307.008 308.809C282.924 308.809 263.4 328.313 263.4 352.372C263.4 376.431 282.924 395.935 307.008 395.935Z" fill="#F8B044"/>
  </svg>

</svg>
