<svg id="visual" viewBox="0 0 900 600" width="900" height="600" xmlns="http://www.w3.org/2000/svg" xmlns:xlink="http://www.w3.org/1999/xlink" version="1.1"><rect x="0" y="0" width="900" height="600" fill="#FFF3EB"></rect><path d="M0 383L21.5 381.7C43 380.3 86 377.7 128.8 377.2C171.7 376.7 214.3 378.3 257.2 381.7C300 385 343 390 385.8 393C428.7 396 471.3 397 514.2 401.3C557 405.7 600 413.3 642.8 416.8C685.7 420.3 728.3 419.7 771.2 410.5C814 401.3 857 383.7 878.5 374.8L900 366L900 601L878.5 601C857 601 814 601 771.2 601C728.3 601 685.7 601 642.8 601C600 601 557 601 514.2 601C471.3 601 428.7 601 385.8 601C343 601 300 601 257.2 601C214.3 601 171.7 601 128.8 601C86 601 43 601 21.5 601L0 601Z" fill="#4a8fa1"></path><path d="M0 453L21.5 444.7C43 436.3 86 419.7 128.8 413.8C171.7 408 214.3 413 257.2 422.5C300 432 343 446 385.8 447.7C428.7 449.3 471.3 438.7 514.2 435.2C557 431.7 600 435.3 642.8 442.3C685.7 449.3 728.3 459.7 771.2 463.5C814 467.3 857 464.7 878.5 463.3L900 462L900 601L878.5 601C857 601 814 601 771.2 601C728.3 601 685.7 601 642.8 601C600 601 557 601 514.2 601C471.3 601 428.7 601 385.8 601C343 601 300 601 257.2 601C214.3 601 171.7 601 128.8 601C86 601 43 601 21.5 601L0 601Z" fill="#438393"></path><path d="M0 477L21.5 480C43 483 86 489 128.8 489C171.7 489 214.3 483 257.2 479.3C300 475.7 343 474.3 385.8 468.8C428.7 463.3 471.3 453.7 514.2 456.2C557 458.7 600 473.3 642.8 474.8C685.7 476.3 728.3 464.7 771.2 462.5C814 460.3 857 467.7 878.5 471.3L900 475L900 601L878.5 601C857 601 814 601 771.2 601C728.3 601 685.7 601 642.8 601C600 601 557 601 514.2 601C471.3 601 428.7 601 385.8 601C343 601 300 601 257.2 601C214.3 601 171.7 601 128.8 601C86 601 43 601 21.5 601L0 601Z" fill="#3c7785"></path><path d="M0 516L21.5 520.2C43 524.3 86 532.7 128.8 528.3C171.7 524 214.3 507 257.2 499.3C300 491.7 343 493.3 385.8 502.2C428.7 511 471.3 527 514.2 534.2C557 541.3 600 539.7 642.8 534.3C685.7 529 728.3 520 771.2 511.2C814 502.3 857 493.7 878.5 489.3L900 485L900 601L878.5 601C857 601 814 601 771.2 601C728.3 601 685.7 601 642.8 601C600 601 557 601 514.2 601C471.3 601 428.7 601 385.8 601C343 601 300 601 257.2 601C214.3 601 171.7 601 128.8 601C86 601 43 601 21.5 601L0 601Z" fill="#356b77"></path><path d="M0 570L21.5 570C43 570 86 570 128.8 563.2C171.7 556.3 214.3 542.7 257.2 543C300 543.3 343 557.7 385.8 561C428.7 564.3 471.3 556.7 514.2 556.7C557 556.7 600 564.3 642.8 564C685.7 563.7 728.3 555.3 771.2 554.2C814 553 857 559 878.5 562L900 565L900 601L878.5 601C857 601 814 601 771.2 601C728.3 601 685.7 601 642.8 601C600 601 557 601 514.2 601C471.3 601 428.7 601 385.8 601C343 601 300 601 257.2 601C214.3 601 171.7 601 128.8 601C86 601 43 601 21.5 601L0 601Z" fill="#2f5f6a"></path></svg>