<svg id="visual" viewBox="0 0 900 600" width="900" height="600" xmlns="http://www.w3.org/2000/svg" xmlns:xlink="http://www.w3.org/1999/xlink" version="1.1"><path d="M0 157L13.7 157C27.3 157 54.7 157 82 154C109.3 151 136.7 145 163.8 165C191 185 218 231 245.2 235C272.3 239 299.7 201 327 201C354.3 201 381.7 239 409 238C436.3 237 463.7 197 491 188C518.3 179 545.7 201 573 216C600.3 231 627.7 239 654.8 240C682 241 709 235 736.2 228C763.3 221 790.7 213 818 191C845.3 169 872.7 133 886.3 115L900 97L900 0L886.3 0C872.7 0 845.3 0 818 0C790.7 0 763.3 0 736.2 0C709 0 682 0 654.8 0C627.7 0 600.3 0 573 0C545.7 0 518.3 0 491 0C463.7 0 436.3 0 409 0C381.7 0 354.3 0 327 0C299.7 0 272.3 0 245.2 0C218 0 191 0 163.8 0C136.7 0 109.3 0 82 0C54.7 0 27.3 0 13.7 0L0 0Z" fill="#f8b044"></path><path d="M0 199L13.7 202C27.3 205 54.7 211 82 217C109.3 223 136.7 229 163.8 247C191 265 218 295 245.2 290C272.3 285 299.7 245 327 245C354.3 245 381.7 285 409 292C436.3 299 463.7 273 491 271C518.3 269 545.7 291 573 306C600.3 321 627.7 329 654.8 324C682 319 709 301 736.2 289C763.3 277 790.7 271 818 252C845.3 233 872.7 201 886.3 185L900 169L900 95L886.3 113C872.7 131 845.3 167 818 189C790.7 211 763.3 219 736.2 226C709 233 682 239 654.8 238C627.7 237 600.3 229 573 214C545.7 199 518.3 177 491 186C463.7 195 436.3 235 409 236C381.7 237 354.3 199 327 199C299.7 199 272.3 237 245.2 233C218 229 191 183 163.8 163C136.7 143 109.3 149 82 152C54.7 155 27.3 155 13.7 155L0 155Z" fill="#eb9e3a"></path><path d="M0 265L13.7 272C27.3 279 54.7 293 82 303C109.3 313 136.7 319 163.8 333C191 347 218 369 245.2 361C272.3 353 299.7 315 327 313C354.3 311 381.7 345 409 358C436.3 371 463.7 363 491 369C518.3 375 545.7 395 573 400C600.3 405 627.7 395 654.8 385C682 375 709 365 736.2 369C763.3 373 790.7 391 818 383C845.3 375 872.7 341 886.3 324L900 307L900 167L886.3 183C872.7 199 845.3 231 818 250C790.7 269 763.3 275 736.2 287C709 299 682 317 654.8 322C627.7 327 600.3 319 573 304C545.7 289 518.3 267 491 269C463.7 271 436.3 297 409 290C381.7 283 354.3 243 327 243C299.7 243 272.3 283 245.2 288C218 293 191 263 163.8 245C136.7 227 109.3 221 82 215C54.7 209 27.3 203 13.7 200L0 197Z" fill="#dd8c31"></path><path d="M0 343L13.7 353C27.3 363 54.7 383 82 395C109.3 407 136.7 411 163.8 424C191 437 218 459 245.2 452C272.3 445 299.7 409 327 407C354.3 405 381.7 437 409 454C436.3 471 463.7 473 491 480C518.3 487 545.7 499 573 503C600.3 507 627.7 503 654.8 489C682 475 709 451 736.2 444C763.3 437 790.7 447 818 445C845.3 443 872.7 429 886.3 422L900 415L900 305L886.3 322C872.7 339 845.3 373 818 381C790.7 389 763.3 371 736.2 367C709 363 682 373 654.8 383C627.7 393 600.3 403 573 398C545.7 393 518.3 373 491 367C463.7 361 436.3 369 409 356C381.7 343 354.3 309 327 311C299.7 313 272.3 351 245.2 359C218 367 191 345 163.8 331C136.7 317 109.3 311 82 301C54.7 291 27.3 277 13.7 270L0 263Z" fill="#cf7a28"></path><path d="M0 601L13.7 601C27.3 601 54.7 601 82 601C109.3 601 136.7 601 163.8 601C191 601 218 601 245.2 601C272.3 601 299.7 601 327 601C354.3 601 381.7 601 409 601C436.3 601 463.7 601 491 601C518.3 601 545.7 601 573 601C600.3 601 627.7 601 654.8 601C682 601 709 601 736.2 601C763.3 601 790.7 601 818 601C845.3 601 872.7 601 886.3 601L900 601L900 413L886.3 420C872.7 427 845.3 441 818 443C790.7 445 763.3 435 736.2 442C709 449 682 473 654.8 487C627.7 501 600.3 505 573 501C545.7 497 518.3 485 491 478C463.7 471 436.3 469 409 452C381.7 435 354.3 403 327 405C299.7 407 272.3 443 245.2 450C218 457 191 435 163.8 422C136.7 409 109.3 405 82 393C54.7 381 27.3 361 13.7 351L0 341Z" fill="#c06920"></path></svg>